HIERARCHY
ROOT Hips
{
	OFFSET 0.000000 0.000000 0.000000 
	CHANNELS 6 Xposition Yposition Zposition Yrotation Zrotation Xrotation 
	JOINT Lumbar
	{
		OFFSET 0.000000 0.000000 0.000000 
		CHANNELS 3 Zrotation Xrotation Yrotation
		JOINT Neck
		{
			OFFSET 0.000000 0.445665 0.000000 
			CHANNELS 3 Zrotation Xrotation Yrotation
			End Site
			{
				OFFSET 0.000000 0.227535 0.000000 
			}
		}
		JOINT RightShoulder
		{
			OFFSET 0.019635 0.377685 0.194865 
			CHANNELS 3 Zrotation Xrotation Yrotation
			JOINT RightElbow
			{
				OFFSET 0.000000 -0.243375 0.000000 
				CHANNELS 2 Zrotation Yrotation
				JOINT RightWrist
				{
					OFFSET 0.000000 -0.264825 0.000000 
					CHANNELS 2 Zrotation Xrotation
					End Site
					{
						OFFSET 0.006600 -0.176220 0.000990 
					}
				}
			}
		}
		JOINT LeftShoulder
		{
			OFFSET 0.019635 0.377685 -0.194865 
			CHANNELS 3 Zrotation Xrotation Yrotation
			JOINT LeftElbow
			{
				OFFSET 0.000000 -0.243375 0.000000 
				CHANNELS 2 Zrotation Yrotation
				JOINT LeftWrist
				{
					OFFSET 0.000000 -0.264825 0.000000 
					CHANNELS 2 Zrotation Xrotation
					End Site
					{
						OFFSET 0.006600 -0.176220 -0.000990 
					}
				}
			}
		}
	}
	JOINT RightHip
	{
		OFFSET 0.052140 -0.069960 0.075570 
		CHANNELS 3 Zrotation Xrotation Yrotation
		JOINT RightKnee
		{
			OFFSET 0.000000 -0.402270 0.000000 
			CHANNELS 1 Zrotation
			JOINT RightAnkle
			{
				OFFSET 0.000000 -0.404085 0.000000 
				CHANNELS 3 Zrotation Xrotation Yrotation
				End Site
				{
					OFFSET 0.204105 -0.089430 0.008415 
				}
			}
		}
	}
	JOINT LeftHip
	{
		OFFSET 0.052140 -0.069960 -0.075570 
		CHANNELS 3 Zrotation Xrotation Yrotation
		JOINT LeftKnee
		{
			OFFSET 0.000000 -0.402270 0.000000 
			CHANNELS 1 Zrotation
			JOINT LeftAnkle
			{
				OFFSET 0.000000 -0.404085 0.000000 
				CHANNELS 3 Zrotation Xrotation Yrotation
				End Site
				{
					OFFSET 0.204105 -0.089430 -0.008415 
				}
			}
		}
	}
}
MOTION
Frames: 16
Frame Time: 0.02
0.31729 0.06324 -0.09061 57.63914 -28.50061 -10.32305 37.09068 5.48841 -1.55104 -27.36569 3.16548 -2.10316 -15.29729 -17.81269 -10.14526 24.8573 87.34457 5.44535 5.58188 -23.40759 22.57429 -12.21702 48.42444 -93.5119 9.54445 -0.69046 43.40199 0.89334 -18.0434 -22.39659 -6.08864 -2.24583 -3.3065 50.77572 16.44898 4.11983 -38.98103 -8.04288 1.19884 2.89565
0.31841 0.06332 -0.09087 57.48544 -28.61406 -10.27715 37.12608 5.54397 -1.6926 -27.35649 3.15796 -2.10318 -15.39651 -17.85866 -9.61808 24.79731 87.32835 5.57344 5.45912 -23.38034 22.75527 -12.34472 48.58208 -93.38214 9.465 -0.6747 43.43568 0.86463 -18.43367 -22.31896 -6.08276 -2.19392 -3.28204 50.62359 16.23157 3.9684 -37.27587 -7.94687 1.21262 2.89756
0.31935 0.06338 -0.09129 57.28426 -28.71783 -10.22563 37.14827 5.58666 -1.79712 -27.3567 3.14244 -2.10319 -15.37674 -17.89974 -8.81657 24.80088 87.30547 5.76018 5.28315 -23.32613 22.95791 -12.51239 48.72314 -93.24635 9.37865 -0.65636 43.46094 0.8252 -18.80249 -22.23104 -6.07951 -2.13987 -3.25653 50.42652 16.0273 3.80855 -35.41643 -7.85614 1.19146 2.88314
0.32035 0.06344 -0.09164 57.09549 -28.82606 -10.18105 37.17831 5.63656 -1.91694 -27.35149 3.13134 -2.10321 -15.41244 -17.9344 -8.15766 24.80246 87.28427 5.921 5.1318 -23.29002 23.14417 -12.64137 48.87551 -93.21808 9.32567 -0.65719 43.49381 0.79551 -19.16934 -22.15094 -6.07502 -2.08741 -3.23179 50.25699 15.81657 3.6569 -33.65292 -7.76357 1.1862 2.8762
0.32141 0.06353 -0.09195 56.94262 -28.93344 -10.11826 37.19963 5.68142 -2.0416 -27.35081 3.11599 -2.10323 -15.44374 -18.00543 -7.41891 24.70014 87.26784 6.08588 4.97545 -23.23103 23.35678 -12.85062 49.01404 -92.76929 9.15145 -0.58499 43.51195 0.74482 -19.58691 -22.0601 -6.07062 -2.03196 -3.20564 50.05388 15.60262 3.47519 -31.76581 -7.66773 1.18128 2.86913
0.32232 0.06356 -0.0924 56.70533 -29.04128 -10.09148 37.23683 5.73288 -2.14862 -27.34225 3.10793 -2.10324 -15.45395 -18.00058 -6.77836 24.82509 87.24025 6.24927 4.81819 -23.21149 23.52039 -12.90724 49.17579 -93.15526 9.21526 -0.6572 43.5594 0.73466 -19.89287 -21.9887 -6.06682 -1.98246 -3.18228 49.91185 15.40075 3.35798 -30.10695 -7.58078 1.16729 2.85847
0.32287 0.06338 -0.09317 56.23928 -29.14287 -10.17127 37.31427 5.81299 -2.20774 -27.31969 3.12204 -2.10325 -15.45292 -17.77503 -6.53361 25.56897 87.18356 6.44798 4.67033 -23.32127 23.54002 -12.50017 49.41667 -96.24648 10.07059 -1.20515 43.6756 0.84938 -19.90111 -21.96744 -6.06251 -1.94883 -3.16629 49.94339 15.2262 3.42681 -29.09409 -7.51104 1.13575 2.84125
0.32327 0.06314 -0.09406 55.69136 -29.24663 -10.2864 37.40907 5.89893 -2.25164 -27.28737 3.1437 -2.10326 -15.43178 -17.47537 -6.3887 26.53699 87.11598 6.63412 4.52416 -23.46912 23.51044 -11.9446 49.6794 -100.11378 11.14463 -1.8867 43.82338 1.0035 -19.79697 -21.96677 -6.05898 -1.92146 -3.15323 50.03911 15.06441 3.56069 -28.32246 -7.45111 1.09655 2.82115
0.32373 0.06293 -0.0949 55.18626 -29.35644 -10.38166 37.50094 5.97734 -2.30852 -27.25281 3.16223 -2.10327 -15.40772 -17.21769 -6.16046 27.39632 87.05352 6.7887 4.37819 -23.59031 23.5056 -11.47889 49.9247 -103.35587 12.02873 -2.45518 43.96637 1.13305 -19.74035 -21.96023 -6.05611 -1.89207 -3.13926 50.11038 14.89963 3.66375 -27.45626 -7.39084 1.06128 2.8027
0.32424 0.06271 -0.09575 54.65662 -29.43809 -10.493 37.57304 6.07551 -2.3401 -27.24588 3.17996 -2.10328 -15.42906 -16.92512 -6.07878 28.28606 86.99022 7.09724 4.22567 -23.74973 23.49106 -10.92035 50.20077 -107.71426 13.28289 -3.2368 44.07086 1.29051 -19.6968 -21.93874 -6.04912 -1.85935 -3.12362 50.16179 14.72417 3.77494 -26.51965 -7.31385 1.02235 2.78199
0.32461 0.0625 -0.09661 54.15818 -29.57667 -10.57908 37.68857 6.13454 -2.41926 -27.18007 3.20026 -2.10329 -15.35432 -16.68732 -5.7241 29.16582 86.92599 7.08825 4.08859 -23.83935 23.48524 -10.51902 50.41858 -109.97433 13.8332 -3.61596 44.26047 1.39912 -19.60113 -21.95327 -6.05078 -1.83476 -3.11201 50.26831 14.57282 3.88062 -25.79057 -7.27335 0.99039 2.76583
0.32466 0.06234 -0.09748 53.77572 -29.8923 -10.58892 37.93733 6.08026 -2.65086 -26.94455 3.23461 -2.10331 -15.00509 -16.62229 -4.54983 29.95338 86.86344 6.14528 3.98821 -23.72341 23.51084 -10.59063 50.46636 -105.88203 12.25726 -2.76649 44.70041 1.36527 -19.37437 -22.06323 -6.07683 -1.8342 -3.11231 50.52983 14.49437 3.99332 -25.56471 -7.33641 0.97328 2.76017
0.32456 0.0622 -0.09837 53.426 -30.2614 -10.57182 38.22606 5.98716 -2.92797 -26.65187 3.26987 -2.10333 -14.56311 -16.61458 -3.10625 30.72417 86.80008 4.89379 3.90457 -23.53682 23.54739 -10.82444 50.45563 -99.71688 9.9886 -1.52226 45.22066 1.28076 -19.10084 -22.20855 -6.11139 -1.84115 -3.11636 50.84153 14.43829 4.09247 -25.54262 -7.43489 0.96463 2.75971
0.32451 0.06206 -0.09926 53.05496 -30.59273 -10.5656 38.48496 5.91437 -3.17283 -26.39156 3.29875 -2.10335 -14.17346 -16.57813 -1.81477 31.5093 86.73606 3.82321 3.81723 -23.38484 23.58225 -10.98279 50.47417 -94.74643 8.12311 -0.51545 45.68905 1.21792 -18.85975 -22.33709 -6.14163 -1.8425 -3.11768 51.11813 14.36529 4.17124 -25.43471 -7.51365 0.95663 2.75886
0.32455 0.06189 -0.1001 52.70775 -30.981 -10.5661 38.79337 5.83048 -3.46528 -26.10385 3.35231 -2.10337 -13.74005 -16.54946 -0.40212 32.27584 86.67593 2.58187 3.71361 -23.22309 23.60271 -11.14535 50.48181 -88.74948 5.89633 0.72779 46.22335 1.16138 -18.57171 -22.46946 -6.1739 -1.85284 -3.12323 51.44819 14.31983 4.35904 -25.30492 -7.60786 0.93008 2.74989
0.32438 0.06178 -0.10106 52.32033 -31.26333 -10.54609 39.00832 5.76047 -3.67047 -25.85987 3.35552 -2.1034 -13.376 -16.52042 0.82459 33.07177 86.60773 1.62126 3.6476 -23.06505 23.65493 -11.33708 50.49835 -84.37166 4.24953 1.57891 46.63909 1.08013 -18.36654 -22.60183 -6.20384 -1.84676 -3.12109 51.67883 14.22396 4.32232 -25.26791 -7.67841 0.94339 2.75871
